<?xml version="1.0" encoding="UTF-8"?>
<svg width="101px" height="21px" viewBox="0 0 101 21" version="1.1" xmlns="http://www.w3.org/2000/svg" xmlns:xlink="http://www.w3.org/1999/xlink">
    <title>Group 2</title>
    <g id="Page-6" stroke="none" stroke-width="1" fill="none" fill-rule="evenodd">
        <g id="Group-2" transform="translate(0.500000, 0.500000)" fill-rule="nonzero">
            <g id="Group" transform="translate(9.547739, 0.487805)" fill="#FFFFFF">
                <path d="M14.1900041,6.72205988e-14 C18.2899973,6.72205988e-14 20.8211327,2.20313971 20.8211327,5.66483084 C20.8211327,7.03223482 20.26314,8.34356325 19.1474603,9.59881612 C21.4011273,10.9626217 22.527808,12.588513 22.527808,14.4767899 L22.527808,16.3650669 L35.1568994,6.72205988e-14 L47.1033207,15.1062156 L47.1033207,6.72205988e-14 L65.535108,11.6445244 L65.535108,6.72205988e-14 L78.8471751,6.72205988e-14 C84.9909004,6.72205988e-14 90.4522613,4.09141665 90.4522613,9.7562475 C90.4522613,15.4207785 84.9909004,19.5121951 78.8471751,19.5121951 L65.535108,19.5121951 L53.5886867,11.6445244 L53.5886867,19.5121951 L44.3729458,19.5121951 L41.9832949,16.3650669 L28.6715333,16.3650669 L26.2824935,19.5121951 L1.73703236e-14,19.5121951 L1.73703236e-14,6.72205988e-14 L14.1900041,6.72205988e-14 Z M14.6771017,11.0150988 L6.48536602,11.0150988 L6.48536602,15.4210783 L14.6771017,15.4210783 C15.7011069,15.4210783 17.0667527,15.1062156 17.0667527,13.2179386 C17.0667527,11.3296617 15.7011069,11.0150988 14.6771017,11.0150988 Z M77.2896238,4.0431377 L72.020474,4.09111678 L72.020474,15.4210783 L77.2789284,15.4210783 C81.4855697,15.4210783 84.9909004,13.480924 84.9909004,9.7562475 C84.9909004,6.03127112 81.4855697,4.09141665 77.2896238,4.04283783 L77.2896238,4.0431377 Z M35.1568994,7.23824503 L31.0608787,12.902776 L39.5942551,12.902776 L35.1572049,7.23824503 L35.1568994,7.23824503 Z M12.2932568,4.09111678 L6.48536602,4.09111678 L6.48536602,8.49709633 L12.2932568,8.49709633 C14.00146,8.49709633 15.0184368,7.72553263 15.0184368,6.19499975 C15.0184368,4.66476674 14.0824392,4.14749221 12.2932568,4.09111678 L12.2932568,4.09111678 Z" id="Shape"></path>
            </g>
            <path d="M-7.53768844,12.195122 L-5.06639514,12.195122 L-5.06378044,7.49237034 L-7.53768844,7.45644599 L-7.53768844,12.195122 L-7.53768844,12.195122 Z M3.74931141,12.0557491 L3.74931141,7.31707317 L1.45496125,7.31707317 L1.45496125,8.75934718 L-1.06861853,7.31707317 L-3.36296869,7.31707317 L-3.36296869,12.0557491 L-1.06861853,12.0557491 L-1.06861853,8.75934718 L1.45516665,10.2014249 L1.45516665,12.0557491 L3.74951681,12.0557491 L3.74931141,12.0557491 Z M10.0115964,12.195122 L12.5628141,12.195122 L9.31580982,9.72282049 L11.6350986,7.45644599 L9.31580982,7.45644599 L7.46037882,9.31077024 L7.46037882,7.45644599 L5.14109007,7.45644599 L5.14109007,12.195122 L7.46037882,12.195122 L7.46037882,10.3407977 L10.0115964,12.195122 L10.0115964,12.195122 Z" id="Shape" fill="#FF9E48" transform="translate(2.512563, 9.756098) rotate(-90.000000) translate(-2.512563, -9.756098) "></path>
        </g>
    </g>
</svg>