<?xml version="1.0" encoding="UTF-8"?>
<svg width="328px" height="66px" viewBox="0 0 328 66" version="1.1" xmlns="http://www.w3.org/2000/svg" xmlns:xlink="http://www.w3.org/1999/xlink">
    <title>Group 2</title>
    <g id="Page-6" stroke="none" stroke-width="1" fill="none" fill-rule="evenodd">
        <g id="Group-2" fill-rule="nonzero">
            <g id="Group" transform="translate(32.000000, 0.000000)" fill="#FFFFFF">
                <path d="M46.436,2.27373675e-13 C59.853,2.27373675e-13 68.136,7.45212006 68.136,19.1612903 C68.136,23.7865343 66.31,28.2221027 62.659,32.4679955 C70.034,37.0810678 73.721,42.5806452 73.721,48.9677419 L73.721,55.3548387 L115.049,2.27373675e-13 L154.143,51.0967742 L154.143,2.27373675e-13 L214.46,39.3876039 L214.46,2.27373675e-13 L258.023,2.27373675e-13 C278.128,2.27373675e-13 296,13.8392168 296,33.0005072 C296,52.1607832 278.128,66 258.023,66 L214.46,66 L175.366,39.3876039 L175.366,66 L145.208,66 L137.388,55.3548387 L93.826,55.3548387 L86.008,66 L5.68434189e-14,66 L5.68434189e-14,2.27373675e-13 L46.436,2.27373675e-13 Z M48.03,37.2585717 L21.223,37.2585717 L21.223,52.1617975 L48.03,52.1617975 C51.381,52.1617975 55.85,51.0967742 55.85,44.7096774 C55.85,38.3225806 51.381,37.2585717 48.03,37.2585717 Z M252.926,13.6759133 L235.683,13.8382025 L235.683,52.1617975 L252.891,52.1617975 C266.657,52.1617975 278.128,45.5992254 278.128,33.0005072 C278.128,20.4007746 266.657,13.8392168 252.926,13.674899 L252.926,13.6759133 Z M115.049,24.4833638 L101.645,43.6436398 L129.57,43.6436398 L115.05,24.4833638 L115.049,24.4833638 Z M40.229,13.8382025 L21.223,13.8382025 L21.223,28.7414283 L40.229,28.7414283 C45.819,28.7414283 49.147,26.1316141 49.147,20.9545867 C49.147,15.7785735 46.084,14.0288924 40.229,13.8382025 L40.229,13.8382025 Z" id="Shape"></path>
            </g>
            <path d="M-23.75,41.75 L-15.7584553,41.75 L-15.75,24.8788786 L-23.75,24.75 L-23.75,41.75 L-23.75,41.75 Z M12.7493358,41.25 L12.7493358,24.25 L5.32998094,24.25 L5.32998094,29.424158 L-2.83064516,24.25 L-10.25,24.25 L-10.25,41.25 L-2.83064516,41.25 L-2.83064516,29.424158 L5.33064516,34.5976117 L5.33064516,41.25 L12.75,41.25 L12.7493358,41.25 Z M33,41.75 L41.25,41.75 L30.75,32.8806185 L38.25,24.75 L30.75,24.75 L24.75,31.4023883 L24.75,24.75 L17.25,24.75 L17.25,41.75 L24.75,41.75 L24.75,35.0976117 L33,41.75 L33,41.75 Z" id="Shape" fill="#FF9E48" transform="translate(8.750000, 33.000000) rotate(-90.000000) translate(-8.750000, -33.000000) "></path>
        </g>
    </g>
</svg>