<?xml version="1.0" encoding="UTF-8"?>
<svg width="575px" height="228px" viewBox="0 0 575 228" version="1.1" xmlns="http://www.w3.org/2000/svg" xmlns:xlink="http://www.w3.org/1999/xlink">
    <title>logo-horizontal</title>
    <defs>
        <linearGradient x1="50%" y1="27.086%" x2="50%" y2="51.249%" id="linearGradient-1">
            <stop stop-color="#FF9E49" offset="0%"></stop>
            <stop stop-color="#001D2C" offset="100%"></stop>
        </linearGradient>
        <linearGradient x1="50%" y1="0%" x2="50%" y2="68.574%" id="linearGradient-2">
            <stop stop-color="#47C4E7" offset="0%"></stop>
            <stop stop-color="#2E96D2" offset="100%"></stop>
        </linearGradient>
    </defs>
    <g id="Page-6" stroke="none" stroke-width="1" fill="none" fill-rule="evenodd">
        <g id="logo-horizontal" transform="translate(0.125000, 0.000000)" fill-rule="nonzero">
            <g id="Group">
                <path d="M119.25,0 C185.11,0 238.5,51.04 238.5,114 C238.5,176.96 185.11,228 119.25,228 C53.39,228 0,176.96 0,114 C0,51.04 53.39,0 119.25,0 Z" id="Path" fill="#001D2C"></path>
                <path d="M119.25,0 C185.11,0 238.5,51.04 238.5,114 C238.5,176.96 185.11,228 119.25,228 C53.39,228 0,176.96 0,114 C0,51.04 53.39,0 119.25,0 Z M119.28,7.033 C56.497,7.033 5.603,55.186 5.603,114.586 C5.603,173.986 56.498,222.14 119.28,222.14 C182.06,222.14 232.955,173.987 232.955,114.587 C232.955,55.187 182.06,7.033 119.279,7.033 L119.28,7.033 Z" id="Shape" fill="url(#linearGradient-1)"></path>
                <ellipse id="Oval" fill="#2E96D2" cx="118.343" cy="106.343" rx="89.324" ry="79.97"></ellipse>
                <path d="M119.804,160.785 C149.514,160.785 174.818,154.53 196.785,144.627 C182.235,170.127 154.245,188.015 119.496,188.015 C84.576,188.015 54.368,170.332 39.901,144.627 C62.006,154.759 89.72,160.785 119.804,160.785 L119.804,160.785 Z" id="Path" fill="#004E7A"></path>
                <path d="M46.322,103.8 C44.432,101.39 41.99,99.685 38.994,98.687 C41.99,97.688 44.433,95.984 46.322,93.573 C48.212,91.163 49.547,88.046 50.33,84.223 C51.112,88.046 52.448,91.163 54.338,93.573 C56.227,95.983 58.669,97.688 61.665,98.687 C58.669,99.685 56.227,101.389 54.338,103.8 C52.448,106.21 51.112,109.327 50.33,113.15 C49.547,109.327 48.211,106.21 46.322,103.8 Z M185.07,103.8 C183.18,101.39 180.737,99.685 177.741,98.687 C180.737,97.688 183.18,95.984 185.069,93.573 C186.959,91.163 188.294,88.046 189.077,84.223 C189.86,88.046 191.195,91.163 193.085,93.573 C194.974,95.983 197.417,97.688 200.413,98.687 C197.417,99.685 194.974,101.389 193.085,103.8 C191.195,106.21 189.86,109.327 189.077,113.15 C188.294,109.327 186.959,106.21 185.069,103.8 L185.07,103.8 Z" id="Shape" fill="#FFFFFF"></path>
            </g>
            <path d="M165.045,62.955 L165.041,63.082 C164.974,63.919 164.257,64.587 163.357,64.652 L163.214,64.657 L75.285,64.657 C74.319,64.657 73.528,63.963 73.458,63.082 L73.453,62.955 C73.453,48.026 87.931,34.881 104.618,34.881 L133.88,34.881 C150.713,34.881 164.76,47.764 165.04,62.508 L165.045,62.955 L165.045,62.955 Z M160.511,133.567 L160.511,131.866 L163.231,131.866 C164.188,131.866 164.971,132.56 165.041,133.44 L165.046,133.567 L165.046,135.285 C165.046,150.781 151.23,163.343 134.188,163.343 L105.219,163.343 C88.177,163.343 74.361,150.781 74.361,135.285 L74.361,133.567 L74.366,133.44 C74.432,132.604 75.142,131.936 76.033,131.87 L76.175,131.866 L78.895,131.866 L78.895,133.567 L160.511,133.567 L160.511,133.567 Z" id="Shape" fill="#FF9E48"></path>
            <path d="M106.28,40.28 L131.896,40.547 C147.246,40.707 159.605,53.195 159.605,68.545 L159.605,129.388 C159.605,144.852 147.069,157.388 131.605,157.388 L105.989,157.388 C90.525,157.388 77.989,144.852 77.989,129.388 L77.989,68.278 C77.989,52.814 90.525,40.278 105.989,40.278 C106.086003,40.278 106.183004,40.278 106.28,40.28 L106.28,40.28 Z" id="Path" fill="#131D24"></path>
            <path d="M125.333,91.493 C130.073,95.47 130.891,102.299 127.16,106.745 C123.428,111.192 116.561,111.572 111.822,107.595 C110.093342,106.155697 108.817488,104.247472 108.148,102.1 C108.803725,103.240464 109.655827,104.256079 110.665,105.1 C115.142,108.857 121.627,108.497 125.151,104.298 C128.425,100.396 127.991,94.552 124.322,90.73 C124.668,90.964 125.006,91.218 125.333,91.493 L125.333,91.493 Z" id="Path" fill="#D8D8D8"></path>
            <path d="M162.271,122.353 C163.803,122.353 165.046,123.53 165.046,124.983 C165.046,126.435 163.803,127.612 162.271,127.612 L149.629,127.612 L149.629,122.352 L162.271,122.352 L162.271,122.353 Z M162.579,111.834 C163.941,111.834 165.046,112.881 165.046,114.172 C165.046,115.462 163.941,116.509 162.579,116.509 L149.629,116.509 L149.629,111.834 L162.579,111.834 L162.579,111.834 Z M162.579,101.316 C163.941,101.316 165.046,102.363 165.046,103.654 C165.046,104.944 163.941,105.991 162.579,105.991 L149.629,105.991 L149.629,101.316 L162.579,101.316 Z M162.579,90.798 C163.941,90.798 165.046,91.844 165.046,93.135 C165.046,94.426 163.941,95.473 162.579,95.473 L149.629,95.473 L149.629,90.798 L162.579,90.798 Z M162.579,80.28 C163.941,80.28 165.046,81.326 165.046,82.617 C165.046,83.907 163.941,84.954 162.579,84.954 L149.629,84.954 L149.629,80.28 L162.579,80.28 Z M162.579,69.761 C163.941,69.761 165.046,70.808 165.046,72.099 C165.046,73.389 163.941,74.436 162.579,74.436 L149.629,74.436 L149.629,69.761 L162.579,69.761 Z" id="Shape" fill="#FF9E48"></path>
            <path d="M144.189,69.76 L144.189,74.435 L135.801,74.435 C134.124,74.435 132.757,75.675 132.686,77.23 L132.683,77.357 C132.683,78.928 134.006,80.21 135.665,80.277 L135.801,80.279 L144.189,80.279 L144.189,84.954 L135.801,84.954 C134.124,84.954 132.757,86.194 132.686,87.749 L132.683,87.875 C132.683,89.447 134.006,90.728 135.665,90.795 L135.801,90.797 L144.189,90.797 L144.189,95.472 L135.801,95.472 C134.124,95.472 132.757,96.712 132.686,98.267 L132.683,98.394 C132.683,99.965 134.006,101.246 135.665,101.313 L135.801,101.316 L144.189,101.316 L144.189,105.99 L135.801,105.99 C134.124,105.99 132.757,107.23 132.686,108.785 L132.683,108.912 C132.683,110.483 134.006,111.765 135.665,111.832 L135.801,111.834 L144.189,111.834 L144.189,116.509 L135.801,116.509 C134.124,116.509 132.757,117.749 132.686,119.304 L132.683,119.43 C132.683,121.002 134.006,122.283 135.665,122.35 L135.801,122.352 L144.189,122.352 L144.189,127.612 L93.405,127.612 L93.405,122.352 L100.035,122.352 C101.712,122.352 103.079,121.112 103.15,119.557 L103.153,119.43 C103.153,117.86 101.83,116.578 100.171,116.511 L100.036,116.509 L93.405,116.509 L93.405,111.834 L100.035,111.834 C101.712,111.834 103.079,110.594 103.15,109.039 L103.153,108.912 C103.153,107.341 101.83,106.059 100.171,105.993 L100.036,105.99 L93.405,105.99 L93.405,101.316 L100.035,101.316 C101.712,101.316 103.079,100.076 103.15,98.521 L103.153,98.394 C103.153,96.823 101.83,95.541 100.171,95.474 L100.036,95.472 L93.405,95.472 L93.405,90.797 L100.035,90.797 C101.712,90.797 103.079,89.557 103.15,88.002 L103.153,87.875 C103.153,86.305 101.83,85.023 100.171,84.956 L100.036,84.954 L93.405,84.954 L93.405,80.279 L100.035,80.279 C101.712,80.279 103.079,79.039 103.15,77.484 L103.153,77.357 C103.153,75.786 101.83,74.504 100.171,74.438 L100.036,74.435 L93.405,74.435 L93.405,69.761 L144.188,69.761 L144.189,69.76 Z M118.372,89.045 C112.691,89.045 108.085,93.362 108.085,98.687 C108.085,104.012 112.691,108.329 118.372,108.329 C124.053,108.329 128.659,104.012 128.659,98.687 C128.659,93.362 124.053,89.045 118.372,89.045 L118.372,89.045 Z" id="Shape" fill="url(#linearGradient-2)"></path>
            <path d="M76.078,122.353 C75.3811945,122.35353 74.7131683,122.63098 74.2210152,123.124259 C73.7288622,123.617537 73.4529384,124.286195 73.4539969,124.983 C73.453204,125.679632 73.729245,126.348033 74.2213693,126.841095 C74.7134935,127.334157 75.381368,127.61147 76.078,127.612 L89.778,127.612 L89.778,122.352 L76.078,122.352 L76.078,122.353 Z M75.786,111.834 C75.1667193,111.834795 74.5731187,112.081566 74.1357838,112.520026 C73.6984488,112.958487 73.4532038,113.552719 73.4539981,114.172 C73.4528947,115.461195 74.4968056,116.507344 75.786,116.509 L89.778,116.509 L89.778,111.834 L75.785,111.834 L75.786,111.834 Z M75.786,101.316 C75.1667193,101.316795 74.5731187,101.563566 74.1357838,102.002026 C73.6984488,102.440487 73.4532038,103.034719 73.4539981,103.654 C73.4528947,104.943195 74.4968056,105.989344 75.786,105.991 L89.778,105.991 L89.778,101.316 L75.785,101.316 L75.786,101.316 Z M75.786,90.798 C74.4968056,90.7996559 73.4528947,91.845805 73.4539981,93.135 C73.4532038,93.7542807 73.6984488,94.3485134 74.1357838,94.7869736 C74.5731187,95.2254337 75.1667193,95.4722049 75.786,95.473 L89.778,95.473 L89.778,90.798 L75.785,90.798 L75.786,90.798 Z M75.786,80.28 C74.4968056,80.2816559 73.4528947,81.327805 73.4539991,82.617 C73.4528947,83.906195 74.4968056,84.9523441 75.786,84.954 L89.778,84.954 L89.778,80.28 L75.785,80.28 L75.786,80.28 Z M75.786,69.761 C75.1667192,69.76206 74.5732237,70.0090853 74.1360762,70.4477331 C73.6989287,70.8863809 73.4539382,71.4807192 73.4549966,72.1 C73.4538947,73.389195 74.4978056,74.4353441 75.787,74.437 L89.779,74.437 L89.779,69.762 L75.785,69.762 L75.786,69.761 Z" id="Shape" fill="#FF9E48"></path>
            <path d="M93.405,122.353 L93.405,127.612 L88.871,127.612 L88.871,122.352 L93.405,122.352 L93.405,122.353 Z M93.405,111.834 L93.405,116.509 L88.871,116.509 L88.871,111.834 L93.405,111.834 L93.405,111.834 Z M93.405,101.316 L93.405,105.991 L88.871,105.991 L88.871,101.316 L93.405,101.316 Z M93.405,90.798 L93.405,95.473 L88.871,95.473 L88.871,90.798 L93.405,90.798 Z M93.405,80.28 L93.405,84.954 L88.871,84.954 L88.871,80.28 L93.405,80.28 Z M93.405,69.761 L93.405,74.436 L88.871,74.436 L88.871,69.761 L93.405,69.761 Z M122.424,48.493 L123.331,56.149 C123.331,58.701 121.215,60.392 118.797,60.4030292 C118.695893,60.4033979 118.594812,60.3997283 118.494,60.392 C120.312,60.254 121.517,58.702 121.517,56.149 L121.517,48.493 L122.424,48.493 L122.424,48.493 Z M110.635,48.493 L110.635,56.149 C110.635,58.701 108.519,60.392 106.101,60.403 C105.999,60.403 105.898,60.399 105.798,60.392 C107.616,60.254 108.821,58.702 108.821,56.149 L108.821,48.493 L110.635,48.493 L110.635,48.493 Z M135.12,48.493 L136.027,56.149 C136.027,58.701 133.911,60.392 131.492,60.403 C131.391,60.403 131.29,60.399 131.19,60.392 C133.007,60.254 134.213,58.702 134.213,56.149 L134.213,48.493 L135.12,48.493 L135.12,48.493 Z" id="Shape" fill="#FFFFFF"></path>
            <path d="M127.865,48.493 L127.865,57 C127.865,58.917 129.429,60.403 131.492,60.403 C133.509,60.403 135.046,58.857 135.12,57 L135.12,48.493 C142.59,48.688 148.681,51.963 148.722,62.955 L88.871,62.955 C88.912,54.856 93.757,48.688 102.473,48.493 L102.473,57 C102.473,58.917 104.038,60.403 106.101,60.403 C108.117,60.403 109.654,58.857 109.728,57 L109.728,48.493 L115.169,48.493 L115.169,57 C115.169,58.873 116.78,60.403 118.797,60.403 C120.813,60.403 122.35,58.857 122.424,57 L122.424,48.493 L127.865,48.493 L127.865,48.493 Z" id="Path" fill="#46C2E6"></path>
            <path d="M135.12,48.493 C142.375,48.493 149.592,52.67 149.63,62.955 L144.188,62.955 C144.17,57.791 141.147,52.97 135.12,48.493 L135.12,48.493 Z" id="Path" fill="#004E7A"></path>
            <path d="M102.473,48.493 L102.473,51.045 C96.227,51.919 94.273,56.589 93.512,62.955 L88.871,62.955 C88.871,54.448 94.311,48.493 102.473,48.493 L102.473,48.493 Z M125.824,148.85 L125.824,140.782 C125.824,138.864 127.625,136.97 129.679,136.97 C131.686,136.97 133.306,138.672 133.306,140.373 L133.306,148.881 L134.213,148.881 L134.213,136.971 L99.753,134.418 C99.78,135.961 100.207,138.082 101.033,140.782 C101.033,138.864 103.14,136.97 105.193,136.97 C107.201,136.97 108.821,138.672 108.821,140.373 L108.821,148.881 L113.428,148.881 L113.356,141.224 C113.356,139.35 114.854,137.041 116.843,136.973 L117.89,136.97 C119.179,136.97 121.517,138.672 121.517,140.373 L121.517,148.881 C124.115,148.874 125.55,148.864 125.824,148.851 L125.824,148.85 Z" id="Shape" fill="#FFFFFF"></path>
            <path d="M126.937,148.85 L126.937,140.782 C126.937,138.864 128.584,137.31 130.617,137.31 C132.603,137.31 134.221,138.795 134.294,140.651 L134.296,140.781 L134.296,148.881 C134.296,148.881 149.629,148.881 149.629,134.418 L88.871,134.418 C88.911,136.732 88.981,148.881 102.473,148.881 L102.473,140.373 C102.473,138.456 104.052,137.31 106.084,137.31 C108.07,137.31 109.656,138.516 109.728,140.373 L109.764,148.851 L115.169,148.881 L115.169,140.373 C115.169,138.5 116.244,137.381 118.212,137.313 L118.35,137.31 C120.337,137.31 122.351,138.516 122.424,140.373 L122.424,148.881 C125.162,148.874 126.666,148.864 126.937,148.851 L126.937,148.85 Z" id="Path" fill="#299AD9"></path>
            <path d="M149.629,134.418 C149.629,144.831 141.613,148.881 134.213,148.881 L134.213,140.203 C140.379,140.203 143.463,138.275 143.463,134.418 L149.629,134.418 Z" id="Path" fill="#004E7A"></path>
            <path d="M93.405,69.761 L93.405,70.611 L107.605,70.611 C110.675,70.611 113.196,70.328 115.169,69.761 L93.405,69.761 Z" id="Path" fill="#FFFFFF"></path>
            <polygon id="Path" fill="#FF9E48" points="102.473 160.79 134.213 160.79 134.213 207.582 102.473 207.582"></polygon>
            <polygon id="Path" fill="#131D24" points="109.728 155.687 126.958 155.687 126.958 209.284 109.728 209.284"></polygon>
            <polygon id="Path" fill="#FFFFFF" points="114.262 157.388 120.61 157.388 120.61 207.582 114.262 207.582"></polygon>
            <polygon id="Path" fill="#00507C" points="116.983 157.388 122.424 157.388 122.424 207.582 114.262 207.582"></polygon>
            <g id="Group" transform="translate(278.637000, 27.000000)">
                <path d="M46.674,0 C60.091,0 68.374,7.347 68.374,18.891 C68.374,23.451 66.548,27.824 62.897,32.01 C70.272,36.558 73.959,41.98 73.959,48.277 L73.959,54.574 L115.287,0 L154.381,50.376 L154.381,0 L214.698,38.832 L214.698,0 L258.261,0 C278.366,0 296.238,13.644 296.238,32.535 C296.238,51.425 278.366,65.069 258.261,65.069 L214.698,65.069 L175.604,38.832 L175.604,65.069 L145.446,65.069 L137.626,54.574 L94.064,54.574 L86.246,65.069 L0.238,65.069 L0.238,0 L46.674,0 Z M48.268,36.733 L21.461,36.733 L21.461,51.426 L48.268,51.426 C51.619,51.426 56.088,50.376 56.088,44.079 C56.088,37.782 51.619,36.733 48.268,36.733 Z M253.164,13.483 L235.921,13.643 L235.921,51.426 L253.129,51.426 C266.895,51.426 278.366,44.956 278.366,32.535 C278.366,20.113 266.895,13.644 253.164,13.482 L253.164,13.483 Z M115.287,24.138 L101.883,43.028 L129.808,43.028 L115.288,24.138 L115.287,24.138 Z M40.467,13.643 L21.461,13.643 L21.461,28.336 L40.467,28.336 C46.057,28.336 49.385,25.763 49.385,20.659 C49.385,15.556 46.322,13.831 40.467,13.643 L40.467,13.643 Z" id="Shape" fill="#FFFFFF"></path>
                <path d="M0,110 L12.287,110 L12.3,86.044 L0,85.861 L0,110 L0,110 Z M54.732,110 L54.732,85.861 L43.562,85.861 L43.562,93.208 L31.276,85.861 L20.106,85.861 L20.106,110 L31.276,110 L31.276,93.208 L43.563,100.554 L43.563,110 L54.733,110 L54.732,110 Z M83.774,110 L96.061,110 L80.423,97.406 L91.593,85.861 L80.423,85.861 L71.487,95.307 L71.487,85.861 L60.317,85.861 L60.317,110 L71.487,110 L71.487,100.554 L83.774,110 L83.774,110 Z" id="Shape" fill="#FF9E48"></path>
            </g>
        </g>
    </g>
</svg>