<?xml version="1.0" encoding="UTF-8"?>
<svg width="864px" height="822px" viewBox="0 0 864 822" version="1.1" xmlns="http://www.w3.org/2000/svg" xmlns:xlink="http://www.w3.org/1999/xlink">
    <title>se</title>
    <g id="Page-1" stroke="none" stroke-width="1" fill="none" fill-rule="evenodd">
        <g id="se" transform="translate(-0.000000, 0.000000)">
            <path d="M387,0 C365,3 342.87,4.88 321,8 C325.32,52.18 331.78,95.81 336,140 C357.27,137.95 377.88,135.15 399,134 C397.8,125.7 397,119 396,109 C388,110 367.038615,113 363,113 C363,113 359.959016,83.4445177 360,83 C373,82 378,81 390,80 C389.12,71.21 387.24,62.68 386,54 C379,54 371,56 358,57 C356,42 356,38 356,30 C365,29 379,27 390,26 C390,20 388.28,8.58 387,0 Z" id="Path" fill="#D0541B" fill-rule="nonzero"></path>
            <path d="M414,1 C413.77,45.53 410.99,89.42 410.999004,134 C416.999668,134 426,134 438,134 C441.466667,79.44 444.133333,49.44 446,44 C458,90 457.7,104.02 459,134 C467.94,134.97 472.87,136.85 482,137 C489,107 497.25,79.16 510,52 C510.706667,60.6333333 508.373333,89.9666667 503,140 C515,142 522.666667,143.333333 526,144 C529,131 544.673052,22.6251623 546,14 C546,13 508,5 497,4 C494.08,11.1 484.36,70.4 478.75,73.74 C473.13,77.08 468,15 467,2 C453,2 422.67,1 414,1 Z" id="Path" fill="#D1541B" fill-rule="nonzero"></path>
            <path d="M633.69,92.69 C642.35,73.62 650.54,51.17 632,37 C613.45,22.84 597,22 574,17 C563.91,60.51 550.1,102.87 539,146 C548.07,149.61 557.87,150.62 567,154 C571.58,138.37 576,123 580,107 C598.2,115.7 625.04,111.77 633.69,92.69 Z M587,83 C590,71 593,61 597,48 C628,53 615,96 587,83 Z" id="Shape" fill="#D1541B" fill-rule="nonzero"></path>
            <path d="M287,151 C284.753333,141.9 272.086667,98.9 249,22 C239,25.3333333 228.666667,28.6666667 218,32 C224.51,52.15 234.8,71.08 242,91 C228.05,73.63 210.78,57.23 198,39 C188.15,43.45 179,47 168,52 C189.513333,106.673333 205.513333,147.673333 216,175 C225.03,172.82 233.18,167.98 242,165 C234.28,143.45 225.18,122.36 217,101 C222.0298,107.1849 256.892187,142.892187 270,156 C279,154 282,153 287,151 Z" id="Path" fill="#D0531B" fill-rule="nonzero"></path>
            <path d="M649,184 C651,180 668.333333,139 701,61 C689.92,55.54 680.253333,51.2066667 672,48 C654,91 638,131 621,172 C630.39,175.92 639.55,180.23 649,184 Z" id="Path" fill="#D2551B" fill-rule="nonzero"></path>
            <path d="M747,168 C759,170 767,161 771,154 C775,147 781.06,136.04 784.07,126.07 C787.09,116.1 781.27,105.66 773.75,99.25 C766.22,92.85 757.65,88.48 749.08,83.92 C740.5,79.37 731.63,75.14 723,71 C702,116 682,152 660,190 C668,195 676.41,198.4 685,202 C691.95,190.07 698.6,177.68 706.08,166.08 C713.55,154.48 714.13,165.47 713,173 C712.24,178.02 709.573333,191.686667 705,214 C715.546667,220.473333 722.88,225.14 727,228 C733,202 735,166 747,168 Z M741.141597,106.671231 C748.408293,106.533726 754.586495,118.791349 750.887637,126.972919 C747.188778,135.15449 744.014008,143.66018 734.419148,143.670085 C724.81421,143.679823 719.976465,134.172308 725.015782,125.332676 C730.0551,116.493045 732.625151,106.838202 741.141597,106.671231 Z" id="Shape" fill="#D1541B" fill-rule="nonzero"></path>
            <path d="M143,60 C133.6,64.29 124.78,69.74 115,73 C139,116 173,164 157,172 C141,180 123,127 99,82 C90,86 82,91 72,95 C83,114 117.79,190.14 136,199 C154.2,207.87 187.36,195.36 192.68,177.68 C198,160 157,84 143,60 Z" id="Path" fill="#D1541B" fill-rule="nonzero"></path>
            <path d="M72,139 C64.74,130.08 40,113 20,127 C0,141 -5,160 5,178 C15,196 43,196 56,197 C69,198 92,204 86,216 C80,228 68,218 64,212 C57,217 49.13,222.72 40,228 C44.78,237.06 49.82,245.06 58.92,251.08 C68.03,257.09 81.64,254.47 89.92,247.92 C98.2,241.37 105.3,236.86 112.08,228.08 C118.85,219.29 116.1,204.21 110.77,195.23 C105.44,186.25 99.97,178.84 89.69,174.31 C79.41,169.77 70.5,170.74 59,173 C47.5,175.26 25.02,169.02 27.01,157.01 C29,145 48,144 53,153 C62,147 62,146 72,139 Z" id="Path" fill="#D0531B" fill-rule="nonzero"></path>
            <path d="M864,170 C847,157 830,143 812,130 C768,194 743,230.333333 737,239 C753.57,250.09 768.9,263.06 785,275 C789.32,268.83 794.29,262.68 799,257 C789,249 771.8398,236.213383 772,236 C776.513027,229.988759 785.171402,216.794318 790,211 C790,211 808,224 815,230 C819,224 827,211 830,207 C824.65,202.51 807,191 807,191 C807,191 819,173 822,169 C828,173 842,183 851,190 C852,188 863,172 864,170 Z" id="Path" fill="#D1541B" fill-rule="nonzero"></path>
            <path d="M399.98,221.98 C395.84,243.72 411.05,272.82 401.77,293.77 C392.49,314.72 368.51,327.43 355.75,308.25 C343,289.06 335.89,273.55 313.7,266.31 C291.5,259.06 279.31,237.6 282,214 C269.33,228.43 270.7,252.03 276.08,268.92 C281.45,285.82 299.15,293.42 305.02,308.98 C310.9,324.53 312.18,350.65 297.75,362.75 C283.32,374.85 271.56,349.52 257.08,342.92 C242.59,336.33 216.29,336.76 200.25,330.75 C184.2,324.75 174.39,307.53 171,292 C165.31,312 171.83,339.99 188.75,352.25 C205.68,364.51 223.6,369.94 237.23,385.77 C250.86,401.6 254.24,439.59 228,434 C201.77,428.41 183.06,435.53 161.07,445.07 C139.08,454.62 118.88,442.13 105,426 C103.46,435.79 109.76,445.6 115.23,453.77 C120.7,461.94 126.74,467.53 135.31,472.7 C143.87,477.86 158.02,479.18 168,477 C177.98,474.81 193.59,473.89 202.78,477.22 C211.96,480.56 219.82,486.19 225.75,493.25 C231.68,500.3 239.45,511.5 236.97,520.97 C234.5,530.44 215.57,526.74 208.07,531.07 C200.58,535.41 191.23,539.6 185.25,547.25 C179.26,554.9 174.42,561.27 167.25,568.25 C160.08,575.23 151.43,580.43 141,581 C130.57,581.57 117.08,580.41 108,575 C111.23,584.13 120.54,588.72 128.75,593.25 C136.97,597.77 150.08,602.15 159.93,600.93 C169.78,599.7 179.68,596 187.75,590.75 C195.82,585.51 204.17,578.3 214,578 C223.83,577.7 239.35,578.19 246.92,583.08 C254.49,587.98 264.35,593.93 266,603 C267.65,612.06 253.91,616.99 248.75,623.75 C243.59,630.51 236,638.99 234.33,648.33 C232.66,657.66 230.07,668.97 225.77,677.77 C221.47,686.57 214.68,692.3 206.08,697.08 C197.47,701.85 183.67,701.93 176,705 C194.73,715.19 226.46,715.47 242.75,700.75 C259.04,686.04 264.01,668.91 282.92,656.92 C301.84,644.94 341.63,652.67 326.31,677.31 C310.98,701.94 321.31,722.3 322,747 C322.69,771.69 302.09,784.1 283,792 C292.29,796.72 305.34,791.55 314.93,787.93 C324.51,784.31 331.76,778.86 338.75,770.75 C345.73,762.63 350.37,754.04 352.22,743.22 C354.07,732.4 354.06,719.83 359.7,709.7 C365.33,699.56 371.82,696.65 381.93,690.93 C392.03,685.21 408.71,686.38 405,701 C401.29,715.62 404.95,724.49 409.07,735.93 C413.19,747.37 418.01,752.57 423.08,762.92 C428.14,773.28 429.77,784.72 426.32,795.32 C422.88,805.92 417.66,812.9 412,822 C425.4,816.46 435.72,806.4 444.23,794.23 C452.74,782.06 456.71,761.22 449.99,747.01 C443.28,732.79 446.43,710.74 452.23,698.23 C458.03,685.72 475.72,670.55 482.22,684.78 C488.73,699.01 488.91,713.93 501.75,724.25 C514.59,734.56 522.7,740.04 530.69,754.31 C538.69,768.57 531.93,788.16 530,802 C543.47,787.47 550.01,772.33 552.07,753.07 C554.14,733.82 540.48,719.37 532.31,702.69 C524.14,686.02 522.22,661.39 535.08,645.08 C547.94,628.78 560.56,654.58 573.25,664.75 C585.95,674.91 610.82,676.57 625.92,685.08 C641.01,693.6 649.18,715.56 652,731 C657.05,718.33 657.04,704.74 655.98,692.02 C654.91,679.31 647.57,669.8 639.75,660.25 C631.93,650.69 619.9,648.05 611.25,640.75 C602.59,633.46 594.23,622.35 590.98,612.02 C587.72,601.7 582.82,583.72 590.75,573.75 C598.69,563.79 613.06,579.44 623.99,581.01 C634.92,582.58 654.9,583.42 666.33,578.33 C677.75,573.24 694.56,576.93 704.75,583.25 C714.95,589.56 720.72,599.64 727,609 C728.67,597.97 723.34,584.94 718.31,574.7 C713.27,564.45 706.84,558.16 696.69,552.31 C686.55,546.45 672.17,546.08 660.22,544.78 C648.27,543.48 638.52,539.22 628.75,531.25 C618.98,523.27 616.72,517.87 609.98,506.02 C603.23,494.17 611.36,480.39 626,484 C640.64,487.61 650.13,479 660.77,473.77 C671.42,468.54 675.81,460.87 685.25,454.25 C694.7,447.64 706.77,442.26 718.78,444.22 C730.78,446.18 739.69,451.33 750,457 C744.65,446.31 736.01,436.79 725.08,430.92 C714.14,425.06 696.97,419.74 684.01,422.01 C671.04,424.27 658.94,430.3 647.23,435.23 C635.52,440.16 616.14,437.45 607.08,430.92 C598.01,424.4 582.11,414.25 586.08,403.08 C590.05,391.91 613,392 624,368 C635,344 643.39,328.35 653.92,320.92 C664.46,313.49 682.12,315.54 693,312 C683.22,307.25 673.34,304.38 662.67,302.33 C652,300.28 638.98,303.93 629.7,307.7 C620.41,311.46 614.28,318.82 608.75,326.75 C603.23,334.69 596.73,340.65 588.7,345.7 C580.66,350.74 566.26,354.63 557,353 C547.74,351.37 532.57,350.89 527.26,342.74 C521.95,334.6 536.15,326.17 538.7,317.7 C541.24,309.22 547.64,296.55 546,286 C544.36,275.45 544.27,259.84 548.23,250.23 C552.19,240.62 557.87,235.19 565.77,228.77 C573.67,222.35 584.23,220.38 593,217 C580.18,214.51 562.03,215.6 550.7,220.7 C539.36,225.79 531.57,231.51 524.25,241.25 C516.94,251 515.37,266.16 511.92,276.92 C508.48,287.69 500.64,297.87 491.25,303.25 C481.85,308.62 465.76,319.07 455.08,312.92 C444.39,306.78 455.37,283.58 449.93,273.07 C444.48,262.57 441.87,251.06 432.77,242.23 C423.67,233.4 421.76,219.1 423.22,207.22 C424.68,195.34 433.16,185.87 439,176 C420.66,185.91 404.11,200.23 399.98,221.98 Z" id="Shape" fill="#D3551B" fill-rule="nonzero"></path>
            <circle id="Oval" fill="#F7B500" cx="424.5" cy="499.5" r="151.5"></circle>
        </g>
    </g>
</svg>