<?xml version="1.0" encoding="UTF-8"?>
<svg width="646px" height="646px" viewBox="0 0 646 646" version="1.1" xmlns="http://www.w3.org/2000/svg" xmlns:xlink="http://www.w3.org/1999/xlink">
    <title>Artboard</title>
    <g id="Artboard" stroke="none" stroke-width="1" fill="none" fill-rule="evenodd">
        <path d="M294.98,45.98 C290.84,67.72 306.05,96.82 296.77,117.77 C287.49,138.72 263.51,151.43 250.75,132.25 C238,113.06 230.89,97.55 208.7,90.31 C186.5,83.06 174.31,61.6 177,38 C164.33,52.43 165.7,76.03 171.08,92.92 C176.45,109.82 194.15,117.42 200.02,132.98 C205.9,148.53 207.18,174.65 192.75,186.75 C178.32,198.85 166.56,173.52 152.08,166.92 C137.59,160.33 111.29,160.76 95.25,154.75 C79.2,148.75 69.39,131.53 66,116 C60.31,136 66.83,163.99 83.75,176.25 C100.68,188.51 118.6,193.94 132.23,209.77 C145.86,225.6 149.24,263.59 123,258 C96.77,252.41 78.06,259.53 56.07,269.07 C34.08,278.62 13.88,266.13 -9.27591337e-14,250 C-1.54,259.79 4.76,269.6 10.23,277.77 C15.7,285.94 21.74,291.53 30.31,296.7 C38.87,301.86 53.02,303.18 63,301 C72.98,298.81 88.59,297.89 97.78,301.22 C106.96,304.56 114.82,310.19 120.75,317.25 C126.68,324.3 134.45,335.5 131.97,344.97 C129.5,354.44 110.57,350.74 103.07,355.07 C95.58,359.41 86.23,363.6 80.25,371.25 C74.26,378.9 69.42,385.27 62.25,392.25 C55.08,399.23 46.43,404.43 36,405 C25.57,405.57 12.08,404.41 3,399 C6.23,408.13 15.54,412.72 23.75,417.25 C31.97,421.77 45.08,426.15 54.93,424.93 C64.78,423.7 74.68,420 82.75,414.75 C90.82,409.51 99.17,402.3 109,402 C118.83,401.7 134.35,402.19 141.92,407.08 C149.49,411.98 159.35,417.93 161,427 C162.65,436.06 148.91,440.99 143.75,447.75 C138.59,454.51 131,462.99 129.33,472.33 C127.66,481.66 125.07,492.97 120.77,501.77 C116.47,510.57 109.68,516.3 101.08,521.08 C92.47,525.85 78.67,525.93 71,529 C89.73,539.19 121.46,539.47 137.75,524.75 C154.04,510.04 159.01,492.91 177.92,480.92 C196.84,468.94 236.63,476.67 221.31,501.31 C205.98,525.94 216.31,546.3 217,571 C217.69,595.69 197.09,608.1 178,616 C187.29,620.72 200.34,615.55 209.93,611.93 C219.51,608.31 226.76,602.86 233.75,594.75 C240.73,586.63 245.37,578.04 247.22,567.22 C249.07,556.4 249.06,543.83 254.7,533.7 C260.33,523.56 266.82,520.65 276.93,514.93 C287.03,509.21 303.71,510.38 300,525 C296.29,539.62 299.95,548.49 304.07,559.93 C308.19,571.37 313.01,576.57 318.08,586.92 C323.14,597.28 324.77,608.72 321.32,619.32 C317.88,629.92 312.66,636.9 307,646 C320.4,640.46 330.72,630.4 339.23,618.23 C347.74,606.06 351.71,585.22 344.99,571.01 C338.28,556.79 341.43,534.74 347.23,522.23 C353.03,509.72 370.72,494.55 377.22,508.78 C383.73,523.01 383.91,537.93 396.75,548.25 C409.59,558.56 417.7,564.04 425.69,578.31 C433.69,592.57 426.93,612.16 425,626 C438.47,611.47 445.01,596.33 447.07,577.07 C449.14,557.82 435.48,543.37 427.31,526.69 C419.14,510.02 417.22,485.39 430.08,469.08 C442.94,452.78 455.56,478.58 468.25,488.75 C480.95,498.91 505.82,500.57 520.92,509.08 C536.01,517.6 544.18,539.56 547,555 C552.05,542.33 552.04,528.74 550.98,516.02 C549.91,503.31 542.57,493.8 534.75,484.25 C526.93,474.69 514.9,472.05 506.25,464.75 C497.59,457.46 489.23,446.35 485.98,436.02 C482.72,425.7 477.82,407.72 485.75,397.75 C493.69,387.79 508.06,403.44 518.99,405.01 C529.92,406.58 549.9,407.42 561.33,402.33 C572.75,397.24 589.56,400.93 599.75,407.25 C609.95,413.56 615.72,423.64 622,433 C623.67,421.97 618.34,408.94 613.31,398.7 C608.27,388.45 601.84,382.16 591.69,376.31 C581.55,370.45 567.17,370.08 555.22,368.78 C543.27,367.48 533.52,363.22 523.75,355.25 C513.98,347.27 511.72,341.87 504.98,330.02 C498.23,318.17 506.36,304.39 521,308 C535.64,311.61 545.13,303 555.77,297.77 C566.42,292.54 570.81,284.87 580.25,278.25 C589.7,271.64 601.77,266.26 613.78,268.22 C625.78,270.18 634.69,275.33 645,281 C639.65,270.31 631.01,260.79 620.08,254.92 C609.14,249.06 591.97,243.74 579.01,246.01 C566.04,248.27 553.94,254.3 542.23,259.23 C530.52,264.16 511.14,261.45 502.08,254.92 C493.01,248.4 477.11,238.25 481.08,227.08 C485.05,215.91 508,216 519,192 C530,168 538.39,152.35 548.92,144.92 C559.46,137.49 577.12,139.54 588,136 C578.22,131.25 568.34,128.38 557.67,126.33 C547,124.28 533.98,127.93 524.7,131.7 C515.41,135.46 509.28,142.82 503.75,150.75 C498.23,158.69 491.73,164.65 483.7,169.7 C475.66,174.74 461.26,178.63 452,177 C442.74,175.37 427.57,174.89 422.26,166.74 C416.95,158.6 431.15,150.17 433.7,141.7 C436.24,133.22 442.64,120.55 441,110 C439.36,99.45 439.27,83.84 443.23,74.23 C447.19,64.62 452.87,59.19 460.77,52.77 C468.67,46.35 479.23,44.38 488,41 C475.18,38.51 457.03,39.6 445.7,44.7 C434.36,49.79 426.57,55.51 419.25,65.25 C411.94,75 410.37,90.16 406.92,100.92 C403.48,111.69 395.64,121.87 386.25,127.25 C376.85,132.62 360.76,143.07 350.08,136.92 C339.39,130.78 350.37,107.58 344.93,97.07 C339.48,86.57 336.87,75.06 327.77,66.23 C318.67,57.4 316.76,43.1 318.22,31.22 C319.68,19.34 328.16,9.87 334,0 C315.66,9.91 299.11,24.23 294.98,45.98 Z" id="Shape" fill="#D3551B" fill-rule="nonzero"></path>
        <circle id="Oval" fill="#F7B500" cx="322.5" cy="323.5" r="151.5"></circle>
    </g>
</svg>